<?xml version="1.0" encoding="utf-8"?>
<!-- Generator: Adobe Illustrator 22.1.0, SVG Export Plug-In . SVG Version: 6.00 Build 0)  -->
<svg version="1.1" id="Layer_1" xmlns="http://www.w3.org/2000/svg" xmlns:xlink="http://www.w3.org/1999/xlink" x="0px" y="0px"
	 viewBox="0 0 48.7 43.1" style="enable-background:new 0 0 48.7 43.1;" xml:space="preserve">
<style type="text/css">
	.st0{fill:#ED2224;}
</style>
<path class="st0" d="M23.9,6c1.3-1.1,2.5-2.2,3.8-3.2C29.8,1.1,32.2,0,35,0.1c5.5,0.2,9.8,2.5,12.1,7.7c2.7,6.1,1.8,12-1.7,17.5
	c-4.9,7.6-11.6,13.3-19.6,17.5c-0.9,0.5-1.6,0.5-2.5,0c-4.7-2.6-9.3-5.4-13.3-9.1c-4.3-4-7.7-8.6-9.4-14.2C-0.7,14.7,0,10.2,2.4,6.1
	c2-3.4,5.3-5.1,9-5.8c4.5-0.9,8,0.9,10.9,4.1C22.9,4.9,23.3,5.4,23.9,6C23.8,6,23.9,6,23.9,6z"/>
</svg>
